<svg width="32" height="32" viewBox="0 0 32 32" fill="none" xmlns="http://www.w3.org/2000/svg">
  <!-- Fundo circular -->
  <circle cx="16" cy="16" r="15" fill="#EA580C"/>
  
  <!-- Xícara de chá -->
  <path d="M10 12C10 11.4477 10.4477 11 11 11H15C15.5523 11 16 11.4477 16 12V18C16 18.5523 15.5523 19 15 19H11C10.4477 19 10 18.5523 10 18V12Z" fill="white"/>
  
  <!-- Alça da xícara -->
  <path d="M16 13.5C16.8284 13.5 17.5 14.1716 17.5 15C17.5 15.8284 16.8284 16.5 16 16.5V13.5Z" fill="white"/>
  
  <!-- Vapor do chá (3 linhas) -->
  <path d="M12 9L12.5 8L13 9" stroke="white" stroke-width="1.5" stroke-linecap="round" fill="none"/>
  <path d="M14 8L14.5 7L15 8" stroke="white" stroke-width="1.5" stroke-linecap="round" fill="none"/>
  <path d="M16 9L16.5 8L17 9" stroke="white" stroke-width="1.5" stroke-linecap="round" fill="none"/>
  
  <!-- Coração pequeno no centro -->
  <path d="M13 15.5C13 15.5 12.5 15 12 15.5C11.5 16 11.5 16.5 12 17C12.5 17.5 13 17.5 13.5 17C14 16.5 14 16 13.5 15.5C13 15 13 15.5 13 15.5Z" fill="#F97316"/>
</svg>

